HIERARCHY
ROOT Hips
{
  OFFSET 46.568 99.1424 33.7022
  CHANNELS 6 Xposition Yposition Zposition Zrotation Xrotation Yrotation
  JOINT spine
  {
    OFFSET 0 8.30104 0.477351
    CHANNELS 3 Zrotation Xrotation Yrotation
    JOINT spine1
    {
      OFFSET 0 10.4565 0
      CHANNELS 3 Zrotation Xrotation Yrotation
      JOINT spine2
      {
        OFFSET 0 10.0192 0
        CHANNELS 3 Zrotation Xrotation Yrotation
        JOINT Neck
        {
          OFFSET 0 25.7235 1.22641
          CHANNELS 3 Zrotation Xrotation Yrotation
          JOINT Head
          {
            OFFSET 0 7.77175 0
            CHANNELS 3 Zrotation Xrotation Yrotation
            End Site
            {
              OFFSET 0 18.812 -6.20394
            }
          }
        }
        JOINT RightShoulder
        {
          OFFSET -4.2188 10.82 -0.587439
          CHANNELS 3 Zrotation Xrotation Yrotation
          JOINT RightArm
          {
            OFFSET 0 14.1914 0
            CHANNELS 3 Zrotation Xrotation Yrotation
            JOINT RightArmRoll
            {
              OFFSET 0 7.16408 0
              CHANNELS 3 Zrotation Xrotation Yrotation
              JOINT RightForeArm
              {
                OFFSET 0 20.8665 0
                CHANNELS 3 Zrotation Xrotation Yrotation
                JOINT RightForeArmRoll
                {
                  OFFSET 0 8.03921 0
                  CHANNELS 3 Zrotation Xrotation Yrotation
                  JOINT RightHand
                  {
                    OFFSET 0 16.133 0
                    CHANNELS 3 Zrotation Xrotation Yrotation
                    End Site
                    {
                      OFFSET 0 0 0
                    }
                  }
                }
              }
            }
          }
        }
        JOINT LeftShoulder
        {
          OFFSET 4.2188 10.82 -0.587439
          CHANNELS 3 Zrotation Xrotation Yrotation
          JOINT LeftArm
          {
            OFFSET 0 14.1914 0
            CHANNELS 3 Zrotation Xrotation Yrotation
            JOINT LeftArmRoll
            {
              OFFSET 0 7.16408 0
              CHANNELS 3 Zrotation Xrotation Yrotation
              JOINT LeftForeArm
              {
                OFFSET 0 20.8665 0
                CHANNELS 3 Zrotation Xrotation Yrotation
                JOINT LeftForeArmRoll
                {
                  OFFSET 0 8.03921 0
                  CHANNELS 3 Zrotation Xrotation Yrotation
                  JOINT LeftHand
                  {
                    OFFSET 0 16.133 0
                    CHANNELS 3 Zrotation Xrotation Yrotation
                    End Site
                    {
                      OFFSET 0 0 0
                    }
                  }
                }
              }
            }
          }
        }
      }
    }
  }
  JOINT RightUpLeg
  {
    OFFSET -7.35773 -1.34921 -1.13182
    CHANNELS 3 Zrotation Xrotation Yrotation
    JOINT RightUpLegRoll
    {
      OFFSET 0 18.9168 0
      CHANNELS 3 Zrotation Xrotation Yrotation
      JOINT RightLeg
      {
        OFFSET 0 -23.4256 0
        CHANNELS 3 Zrotation Xrotation Yrotation
        JOINT RightLegRoll
        {
          OFFSET 0 23.5023 0
          CHANNELS 3 Zrotation Xrotation Yrotation
          JOINT RightFoot
          {
            OFFSET 0 19.5617 0
            CHANNELS 3 Zrotation Xrotation Yrotation
            JOINT RightToeBase
            {
              OFFSET 0 16.3526 0
              CHANNELS 3 Zrotation Xrotation Yrotation
              End Site
              {
                OFFSET 0.00693125 7.91944 -0.912837
              }
            }
          }
        }
      }
    }
  }
  JOINT LeftUpLeg
  {
    OFFSET 7.35773 -1.34921 -1.13182
    CHANNELS 3 Zrotation Xrotation Yrotation
    JOINT LeftUpLegRoll
    {
      OFFSET 0 18.9169 0
      CHANNELS 3 Zrotation Xrotation Yrotation
      JOINT LeftLeg
      {
        OFFSET 0 23.4255 0
        CHANNELS 3 Zrotation Xrotation Yrotation
        JOINT LeftLegRoll
        {
          OFFSET 0 23.7195 0
          CHANNELS 3 Zrotation Xrotation Yrotation
          JOINT LeftFoot
          {
            OFFSET 0 19.3444 0
            CHANNELS 3 Zrotation Xrotation Yrotation
            JOINT LeftToeBase
            {
              OFFSET 0 16.3526 0
              CHANNELS 3 Zrotation Xrotation Yrotation
              End Site
              {
                OFFSET -0.0310629 7.91943 -0.912837
              }
            }
          }
        }
      }
    }
  }
}
MOTION
Frames: 11
Frame Time: 0.00208333
49.0657 55.6782 -1.90104 -2.43694 -32.0124 8.02614 1.42977 4.58194 -1.34878 3.03293 13.1131 -3.02068 3.08338 14.7559 -3.08266 -0.522326 14.4242 -1.4342 -1.79751 -0.969535 -1.78401 66.1769 -5.52957 -3.84043 102.846 7.08513 -15.9463 -7.34454e-007 -2.2007e-007 -1.7258e-006 53.7052 81.2661 -53.1016 1.63108e-005 -1.88026e-006 -3.00805 8.02945 -4.95108 0.697568 -64.4597 -0.0185107 0.70903 -102.295 10.2802 9.22436 -1.11366e-005 -4.35447e-007 1.16941e-007 -20.1576 67.2381 16.2308 1.88515e-006 -8.81036e-006 3 -8.02929 -4.9513 -0.697645 141.763 44.8563 48.111 180 1.52498e-005 178.036 -14.1494 83.7087 13.1863 2.07562e-006 2.90996e-007 2.43094 -33.6094 72.4017 25.5564 8.13653 25.2342 -3.48276 -155.257 57.9516 -25.8384 4.54188e-006 -4.6773e-006 -2.12329 139.534 -79.8651 134.136 -6.83866e-006 2.21035e-006 -2.50124 26.1885 70.5661 -22.3276 -8.18577 26.0753 3.50843 
49.0695 55.6781 -1.91217 -2.44179 -32.0113 8.03177 1.42854 4.58517 -1.34875 3.03178 13.1205 -3.01966 3.08222 14.7633 -3.08162 -0.443687 14.4146 -1.4525 -1.87034 -0.976498 -1.78893 66.2479 -5.51567 -3.83692 102.765 7.07031 -15.938 -7.34454e-007 -2.2007e-007 -1.7258e-006 53.8774 81.3036 -53.2966 1.63108e-005 -1.88026e-006 -3.00805 8.02945 -4.95108 0.697568 -64.4189 -0.0208645 0.705524 -102.325 10.2803 9.23356 -1.11366e-005 -4.35447e-007 1.16941e-007 -20.1524 67.2619 16.2356 1.88515e-006 -8.81036e-006 3 -8.02929 -4.9513 -0.697645 141.762 44.8565 48.115 180 1.52498e-005 178.036 -14.1826 83.7132 13.219 2.07562e-006 2.90996e-007 2.43096 -33.5936 72.3954 25.5458 8.13653 25.2342 -3.48276 -155.28 57.9619 -25.8142 4.54188e-006 -4.6773e-006 -2.12368 139.502 -79.8656 134.102 -6.83866e-006 2.21035e-006 -2.50126 26.1811 70.5604 -22.3204 -8.18572 26.0747 3.50785 
49.0696 55.6767 -1.91295 -2.44688 -32.0104 8.03737 1.4273 4.58833 -1.34872 3.0307 13.1278 -3.01859 3.08113 14.7706 -3.08053 -0.364109 14.4035 -1.47107 -1.94445 -0.981318 -1.79397 66.3186 -5.5022 -3.83361 102.684 7.0556 -15.9288 -7.34454e-007 -2.2007e-007 -1.7258e-006 54.0452 81.3395 -53.4863 1.63108e-005 -1.88026e-006 -3.00805 8.02945 -4.95108 0.697568 -64.3771 -0.0236937 0.702175 -102.357 10.2806 9.24325 -1.11366e-005 -4.35447e-007 1.16941e-007 -20.147 67.285 16.2401 1.88515e-006 -8.81036e-006 3 -8.02929 -4.9513 -0.697645 141.762 44.8562 48.1193 180 1.52498e-005 178.036 -14.2141 83.7174 13.25 2.07562e-006 2.90996e-007 2.43098 -33.5786 72.3893 25.5358 8.13653 25.2342 -3.48276 -155.303 57.972 -25.7904 4.54188e-006 -4.6773e-006 -2.12405 139.471 -79.8658 134.069 -6.83866e-006 2.21035e-006 -2.50129 26.1745 70.5552 -22.3137 -8.18567 26.074 3.50722 
49.0701 55.6759 -1.91415 -2.45215 -32.0096 8.04296 1.42606 4.59145 -1.3487 3.02966 13.1351 -3.01749 3.08008 14.7779 -3.0794 -0.283879 14.3914 -1.48983 -2.01947 -0.984638 -1.7991 66.389 -5.48903 -3.83042 102.605 7.04096 -15.919 -7.34454e-007 -2.2007e-007 -1.7258e-006 54.2104 81.3743 -53.6727 1.63108e-005 -1.88026e-006 -3.00805 8.02945 -4.95108 0.697568 -64.3347 -0.0268556 0.698936 -102.389 10.2812 9.25328 -1.11366e-005 -4.35447e-007 1.16941e-007 -20.1416 67.3075 16.2443 1.88515e-006 -8.81036e-006 3 -8.02929 -4.9513 -0.697645 141.761 44.8555 48.124 180 1.52498e-005 178.036 -14.2445 83.7214 13.2796 2.07562e-006 2.90996e-007 2.431 -33.5641 72.3835 25.5262 8.13653 25.2342 -3.48276 -155.325 57.9821 -25.7668 4.54188e-006 -4.6773e-006 -2.12441 139.441 -79.8657 134.037 -6.83866e-006 2.21035e-006 -2.50133 26.1684 70.5503 -22.3075 -8.18561 26.0731 3.50657 
49.074 55.6779 -1.92289 -2.45752 -32.0089 8.04855 1.42481 4.59455 -1.34868 3.02864 13.1423 -3.01636 3.07906 14.7851 -3.07825 -0.203279 14.3786 -1.5087 -2.09501 -0.9871 -1.80427 66.4593 -5.47603 -3.82731 102.525 7.02635 -15.9089 -7.34454e-007 -2.2007e-007 -1.7258e-006 54.3745 81.4085 -53.8578 1.63108e-005 -1.88026e-006 -3.00805 8.02945 -4.95108 0.697568 -64.2919 -0.0302077 0.69576 -102.422 10.2818 9.2635 -1.11366e-005 -4.35447e-007 1.16941e-007 -20.1362 67.3298 16.2485 1.88515e-006 -8.81036e-006 3 -8.02929 -4.9513 -0.697645 141.759 44.8547 48.1287 180 1.52498e-005 178.036 -14.2741 83.7252 13.3086 2.07562e-006 2.90996e-007 2.43103 -33.5498 72.3778 25.5168 8.13653 25.2342 -3.48276 -155.348 57.9921 -25.7435 4.54188e-006 -4.6773e-006 -2.12476 139.411 -79.8655 134.005 -6.83866e-006 2.21035e-006 -2.50138 26.1626 70.5457 -22.3015 -8.18554 26.0721 3.5059 
49.0787 55.68 -1.93206 -2.46291 -32.0083 8.05413 1.42357 4.59764 -1.34865 3.02764 13.1495 -3.01522 3.07805 14.7923 -3.0771 -0.122594 14.3658 -1.5276 -2.17067 -0.989347 -1.80946 66.5295 -5.46307 -3.82422 102.446 7.01176 -15.8986 -7.34454e-007 -2.2007e-007 -1.7258e-006 54.5395 81.4424 -54.0437 1.63108e-005 -1.88026e-006 -3.00805 8.02945 -4.95108 0.697568 -64.249 -0.0336073 0.692599 -102.455 10.2824 9.27377 -1.11366e-005 -4.35447e-007 1.16941e-007 -20.1307 67.3519 16.2525 1.88515e-006 -8.81036e-006 3 -8.02929 -4.9513 -0.697645 141.758 44.8538 48.1336 180 1.52498e-005 178.036 -14.3036 83.7291 13.3374 2.07562e-006 2.90996e-007 2.43106 -33.5357 72.3721 25.5075 8.13653 25.2342 -3.48276 -155.37 58.002 -25.7201 4.54188e-006 -4.6773e-006 -2.12512 139.381 -79.8653 133.973 -6.83866e-006 2.21035e-006 -2.50142 26.1568 70.5411 -22.2955 -8.18547 26.0712 3.50523 
49.0833 55.682 -1.94833 -2.46826 -32.0075 8.05972 1.42232 4.60074 -1.34863 3.02662 13.1568 -3.0141 3.07702 14.7996 -3.07596 -0.0421054 14.3532 -1.54644 -2.24608 -0.992024 -1.81462 66.5998 -5.45003 -3.82109 102.366 6.99714 -15.8885 -7.34454e-007 -2.2007e-007 -1.7258e-006 54.7073 81.4765 -54.2325 1.63108e-005 -1.88026e-006 -3.00805 8.02945 -4.95108 0.697568 -64.2063 -0.0369118 0.689407 -102.487 10.283 9.28394 -1.11366e-005 -4.35447e-007 1.16941e-007 -20.1253 67.3743 16.2567 1.88515e-006 -8.81036e-006 3 -8.02929 -4.9513 -0.697645 141.757 44.853 48.1383 180 1.52498e-005 178.036 -14.3335 83.733 13.3666 2.07562e-006 2.90996e-007 2.43109 -33.5214 72.3663 25.4981 8.13653 25.2342 -3.48276 -155.392 58.012 -25.6967 4.54188e-006 -4.6773e-006 -2.12547 139.352 -79.8651 133.942 -6.83866e-006 2.21035e-006 -2.50146 26.151 70.5364 -22.2895 -8.18541 26.0702 3.50456 
49.0849 55.6779 -1.9434 -2.47348 -32.0067 8.06532 1.42108 4.60387 -1.34861 3.02556 13.164 -3.013 3.07595 14.8068 -3.07484 0.0379036 14.3414 -1.56514 -2.32084 -0.995772 -1.81972 66.6703 -5.43677 -3.81786 102.286 6.98247 -15.8789 -7.34454e-007 -2.2007e-007 -1.7258e-006 54.8799 81.5113 -54.4265 1.63108e-005 -1.88026e-006 -3.00805 8.02945 -4.95108 0.697568 -64.1641 -0.0399787 0.686137 -102.519 10.2835 9.29387 -1.11366e-005 -4.35447e-007 1.16941e-007 -20.1199 67.397 16.2611 1.88515e-006 -8.81036e-006 3 -8.02929 -4.9513 -0.697645 141.756 44.8524 48.1429 180 1.52498e-005 178.036 -14.3643 83.737 13.3968 2.07562e-006 2.90996e-007 2.43111 -33.5068 72.3604 25.4884 8.13653 25.2342 -3.48276 -155.415 58.0221 -25.6731 4.54188e-006 -4.6773e-006 -2.12584 139.321 -79.8651 133.909 -6.83866e-006 2.21035e-006 -2.5015 26.1447 70.5314 -22.2831 -8.18535 26.0694 3.50392 
49.0967 55.6675 -1.93862 -2.4785 -32.0058 8.07093 1.41984 4.60706 -1.34858 3.02446 13.1714 -3.01195 3.07484 14.8142 -3.07377 0.117152 14.3307 -1.58362 -2.39458 -1.00123 -1.82473 66.741 -5.42317 -3.81449 102.205 6.96771 -15.87 -7.34454e-007 -2.2007e-007 -1.7258e-006 55.0591 81.5471 -54.628 1.63108e-005 -1.88026e-006 -3.00805 8.02945 -4.95108 0.697568 -64.1226 -0.0426653 0.682741 -102.551 10.2837 9.30341 -1.11366e-005 -4.35447e-007 1.16941e-007 -20.1146 67.4202 16.2657 1.88515e-006 -8.81036e-006 3 -8.02929 -4.9513 -0.697645 141.755 44.8522 48.1471 180 1.52498e-005 178.036 -14.3966 83.7413 13.4285 2.07562e-006 2.90996e-007 2.43113 -33.4916 72.3543 25.4782 8.13653 25.2342 -3.48276 -155.438 58.0322 -25.649 4.54188e-006 -4.6773e-006 -2.12621 139.29 -79.8653 133.876 -6.83866e-006 2.21035e-006 -2.50153 26.1379 70.526 -22.2763 -8.1853 26.0687 3.50331 
49.098 55.6773 -1.96328 -2.48324 -32.0046 8.07656 1.41861 4.61031 -1.34855 3.02328 13.1788 -3.01095 3.07365 14.8217 -3.07275 0.195359 14.3216 -1.60179 -2.4669 -1.00906 -1.82961 66.8121 -5.4091 -3.81092 102.124 6.95284 -15.8621 -7.34454e-007 -2.2007e-007 -1.7258e-006 55.2472 81.5843 -54.8393 1.63108e-005 -1.88026e-006 -3.00805 8.02945 -4.95108 0.697568 -64.0821 -0.0448289 0.679172 -102.58 10.2838 9.31242 -1.11366e-005 -4.35447e-007 1.16941e-007 -20.1095 67.4443 16.2708 1.88515e-006 -8.81036e-006 3 -8.02929 -4.9513 -0.697645 141.755 44.8526 48.1509 180 1.52498e-005 178.036 -14.4309 83.7459 13.4623 2.07562e-006 2.90996e-007 2.43114 -33.4756 72.3478 25.4675 8.13653 25.2342 -3.48276 -155.461 58.0426 -25.6245 4.54188e-006 -4.6773e-006 -2.1266 139.257 -79.8659 133.841 -6.83866e-006 2.21035e-006 -2.50154 26.1302 70.5201 -22.2689 -8.18526 26.0681 3.50274 
49.0957 55.6726 -1.96289 -2.48764 -32.0031 8.08221 1.4174 4.61365 -1.34852 3.022 13.1864 -3.01004 3.07237 14.8293 -3.07181 0.272243 14.3146 -1.61957 -2.53742 -1.01988 -1.83431 66.8837 -5.39444 -3.80709 102.042 6.93782 -15.8555 -7.34454e-007 -2.2007e-007 -1.7258e-006 55.4464 81.6235 -55.0628 1.63108e-005 -1.88026e-006 -3.00805 8.02945 -4.95108 0.697568 -64.0428 -0.046327 0.675383 -102.609 10.2834 9.32074 -1.11366e-005 -4.35447e-007 1.16941e-007 -20.1046 67.4695 16.2763 1.88515e-006 -8.81036e-006 3 -8.02929 -4.9513 -0.697645 141.755 44.8536 48.1542 180 1.52498e-005 178.036 -14.4677 83.7509 13.4988 2.07562e-006 2.90996e-007 2.43115 -33.4586 72.341 25.4559 8.13653 25.2342 -3.48276 -155.485 58.053 -25.5993 4.54188e-006 -4.6773e-006 -2.12701 139.222 -79.867 133.805 -6.83866e-006 2.21035e-006 -2.50155 26.1215 70.5134 -22.2606 -8.18523 26.0677 3.50223 
